<?xml version="1.0" encoding="iso-8859-1"?>
<!-- Generator: Adobe Illustrator 19.0.0, SVG Export Plug-In . SVG Version: 6.00 Build 0)  -->
<svg version="1.1" id="Capa_1" xmlns="http://www.w3.org/2000/svg" xmlns:xlink="http://www.w3.org/1999/xlink" x="0px" y="0px"
	 viewBox="0 0 512 512" style="enable-background:new 0 0 512 512;" xml:space="preserve">
<path style="fill:#FEA832;" d="M512,121v195c0,24.901-20.099,45-45,45H105c-24.901,0-45-20.099-45-45V121l30-30h392L512,121z"/>
<path style="fill:#FE9923;" d="M512,121v195c0,24.901-20.099,45-45,45H286V91h196L512,121z"/>
<path style="fill:#994C0F;" d="M512,76v45H60V76c0-24.901,20.099-45,45-45h362C491.901,31,512,51.099,512,76z"/>
<path style="fill:#32D736;" d="M452,196v15l-30,30H30L0,211v-15c0-24.901,20.099-45,45-45h362C431.901,151,452,171.099,452,196z"/>
<path style="fill:#10BB67;" d="M452,196v15l-30,30H226v-90h181C431.901,151,452,171.099,452,196z"/>
<path style="fill:#713708;" d="M512,76v45H286V31h181C491.901,31,512,51.099,512,76z"/>
<polygon style="fill:#0D70B2;" points="452,211 452,271 422,301 30,301 0,271 0,211 "/>
<polygon style="fill:#095C92;" points="452,211 452,271 422,301 226,301 226,211 "/>
<path style="fill:#32D736;" d="M452,271v165c0,24.901-20.099,45-45,45H45c-24.901,0-45-20.099-45-45V271H452z"/>
<path style="fill:#10BB67;" d="M452,271v165c0,24.901-20.099,45-45,45H226V271H452z"/>
<path style="fill:#FD003A;" d="M105,421c-24.814,0-45-20.186-45-45s20.186-45,45-45s45,20.186,45,45S129.814,421,105,421z"/>
<path style="fill:#FEA832;" d="M165,421c-24.814,0-45-20.186-45-45s20.186-45,45-45s45,20.186,45,45S189.814,421,165,421z"/>
<g>
	<path style="fill:#0D70B2;" d="M377,361H256c-8.291,0-15-6.709-15-15s6.709-15,15-15h121c8.291,0,15,6.709,15,15
		S385.291,361,377,361z"/>
	<path style="fill:#0D70B2;" d="M377,421H256c-8.291,0-15-6.709-15-15s6.709-15,15-15h121c8.291,0,15,6.709,15,15
		S385.291,421,377,421z"/>
</g>
<g>
</g>
<g>
</g>
<g>
</g>
<g>
</g>
<g>
</g>
<g>
</g>
<g>
</g>
<g>
</g>
<g>
</g>
<g>
</g>
<g>
</g>
<g>
</g>
<g>
</g>
<g>
</g>
<g>
</g>
</svg>
